<svg viewBox="0 0 2000 325" xmlns="http://www.w3.org/2000/svg" xml:space="preserve" style="fill-rule:evenodd;clip-rule:evenodd;stroke-linecap:round;stroke-linejoin:round;stroke-miterlimit:1.5">
    <rect id="omm" x="0" y="0" width="2000" height="324.883" style="fill:none;"/>
    <clipPath id="_clip1">
        <rect x="0" y="0" width="2000" height="324.883"/>
    </clipPath>
    <g clip-path="url(#_clip1)">
        <rect x="-52.609" y="-81.038" width="2103.62" height="462.781" style="fill:rgb(1,0,42);"/>
        <rect id="glow2" x="-5.226" y="-76.284" width="2004.39" height="844.057" style="fill:url(#_balancedbgRadial2);"/>
        <g>
            <g opacity="0.5">
                <g opacity="0.3">
                    <path d="M1781,1204.62c193.204,-88.906 341.7,-267.644 382.481,-492.404c33.32,-183.637 -11.582,-363.157 -110.897,-504.34c-27.495,-39.084 -17.992,-93.287 21.208,-120.965c39.2,-27.678 93.347,-18.418 120.842,20.667c125.02,177.723 181.506,403.717 139.562,634.884c-51.323,282.862 -238.117,507.879 -481.267,619.768c-43.572,20.051 -95.062,1.018 -114.912,-42.476c-19.85,-43.493 -0.591,-95.083 42.983,-115.134Z" style="fill:url(#_balancedbgRadial3);"/>
                    <path d="M1243.9,-5.981c-193.203,88.906 -341.699,267.644 -382.48,492.404c-33.32,183.637 11.582,363.157 110.896,504.339c27.495,39.085 17.993,93.288 -21.208,120.966c-39.199,27.678 -93.347,18.417 -120.842,-20.667c-125.019,-177.723 -181.506,-403.717 -139.562,-634.885c51.324,-282.862 238.117,-507.878 481.267,-619.767c43.573,-20.051 95.063,-1.017 114.913,42.476c19.85,43.494 0.59,95.083 -42.984,115.134Z" style="fill:url(#_balancedbgRadial4);"/>
                    <path d="M2121.19,327.276c-88.015,-192.852 -266.041,-340.582 -490.564,-380.361c-183.442,-32.5 -363.123,13.222 -504.719,113.199c-39.199,27.678 -93.346,18.417 -120.84,-20.669c-27.496,-39.084 -17.993,-93.287 21.206,-120.966c178.243,-125.852 404.438,-183.373 635.362,-142.459c282.563,50.062 506.684,235.89 617.451,478.598c19.85,43.493 0.589,95.082 -42.983,115.134c-43.573,20.051 -95.063,1.019 -114.913,-42.476Z" style="fill:url(#_balancedbgRadial5);"/>
                </g>
                <g opacity="0.5">
                    <path d="M1591.27,1098.84c159.729,-27.236 304.188,-129.611 378.376,-287.315c60.615,-128.851 62.824,-270.19 17.434,-394.049c-12.566,-34.289 5.081,-72.387 39.383,-85.023c34.302,-12.638 72.352,4.941 84.919,39.23c57.137,155.916 54.327,333.838 -21.977,496.038c-93.366,198.472 -275.117,327.385 -476.138,361.66c-36.023,6.142 -70.198,-18.118 -76.268,-54.141c-6.07,-36.025 18.246,-70.258 54.271,-76.4Z" style="fill:url(#_balancedbgRadial6);"/>
                    <path d="M1433.65,99.211c-159.728,27.236 -304.188,129.611 -378.376,287.315c-60.615,128.85 -62.823,270.19 -17.434,394.049c12.566,34.289 -5.081,72.387 -39.383,85.023c-34.301,12.637 -72.352,-4.942 -84.919,-39.23c-57.137,-155.916 -54.327,-333.838 21.977,-496.038c93.366,-198.472 275.117,-327.385 476.138,-361.66c36.023,-6.143 70.198,18.118 76.268,54.141c6.071,36.025 -18.247,70.258 -54.271,76.4Z" style="fill:url(#_balancedbgRadial7);"/>
                    <path d="M2014.13,519.174c-26.917,-159.73 -128.976,-304.042 -286.483,-377.951c-128.689,-60.385 -269.975,-62.322 -393.878,-16.676c-34.302,12.636 -72.353,-4.943 -84.918,-39.232c-12.567,-34.289 5.08,-72.387 39.382,-85.024c155.972,-57.459 333.827,-54.993 495.823,21.022c198.223,93.015 326.739,274.58 360.613,475.604c6.07,36.024 -18.248,70.257 -54.272,76.4c-36.023,6.142 -70.197,-18.117 -76.267,-54.143Z" style="fill:url(#_balancedbgRadial8);"/>
                </g>
                <g opacity="0.6">
                    <path d="M1889.99,634.46c13.049,-122.34 -31.441,-247.412 -130.407,-331.153c-80.859,-68.419 -182.744,-96.271 -281.735,-85.928c-27.405,2.863 -51.37,-17.164 -53.482,-44.696c-2.113,-27.532 18.421,-52.211 45.827,-55.074c124.612,-13.02 252.86,22.062 354.647,108.19c124.551,105.389 180.604,262.768 164.181,416.734c-2.943,27.591 -27.519,48.182 -54.847,45.954c-27.329,-2.227 -47.127,-26.436 -44.184,-54.027Z" style="fill:url(#_balancedbgRadial9);"/>
                    <path d="M1557.03,216.383c-121.176,-9.878 -246.601,38.281 -332.427,140.219c-70.123,83.287 -100.509,186.67 -92.88,286.121c2.114,27.532 -18.421,52.209 -45.826,55.072c-27.405,2.864 -51.369,-17.163 -53.483,-44.695c-9.605,-125.19 28.667,-255.328 116.94,-360.171c108.013,-128.289 265.84,-188.961 418.341,-176.528c27.329,2.228 47.126,26.437 44.183,54.028c-2.942,27.591 -27.518,48.183 -54.848,45.954Z" style="fill:url(#_balancedbgRadial10);"/>
                </g>
            </g>
            <g opacity="0.7">
                <path d="M1695.96,822.358c72.649,-59.074 115.964,-150.635 107.934,-249.22c-6.561,-80.55 -46.152,-150.508 -104.694,-198.27c-16.207,-13.222 -18.286,-36.96 -4.639,-52.975c13.646,-16.016 37.884,-18.284 54.091,-5.062c73.694,60.123 123.516,148.197 131.776,249.594c10.107,124.072 -44.359,239.322 -135.789,313.668c-16.385,13.322 -40.592,11.204 -54.026,-4.728c-13.433,-15.932 -11.038,-39.684 5.347,-53.007Z" style="fill:url(#_balancedbgRadial11);"/>
                <path d="M1328.65,377.156c-72.649,59.074 -115.964,150.635 -107.934,249.221c6.562,80.549 46.152,150.508 104.695,198.269c16.206,13.223 18.285,36.96 4.638,52.976c-13.646,16.015 -37.883,18.283 -54.091,5.061c-73.694,-60.122 -123.516,-148.197 -131.775,-249.594c-10.107,-124.072 44.358,-239.322 135.788,-313.667c16.385,-13.323 40.592,-11.205 54.026,4.727c13.434,15.933 11.038,39.684 -5.347,53.007Z" style="fill:url(#_balancedbgRadial12);"/>
                <path d="M1742.12,417.006c-59.564,-70.644 -152.554,-112.218 -253.211,-103.39c-82.241,7.212 -153.996,46.7 -203.291,104.551c-13.646,16.016 -37.883,18.283 -54.09,5.061c-16.207,-13.222 -18.286,-36.96 -4.64,-52.976c62.052,-72.823 152.389,-122.517 255.915,-131.596c126.677,-11.11 243.728,41.165 318.69,130.072c13.433,15.932 11.037,39.683 -5.348,53.006c-16.383,13.323 -40.591,11.205 -54.025,-4.728Z" style="fill:url(#_balancedbgRadial13);"/>
            </g>
        </g>
    </g>
    <defs>
        <radialGradient id="_balancedbgRadial2" cx="0" cy="0" r="1" gradientUnits="userSpaceOnUse" gradientTransform="matrix(1.03446e-13,-385.031,914.335,-7.91511e-15,999.983,358.22)"><stop offset="0" style="stop-color:rgb(42,160,178);stop-opacity:0.4"/><stop offset="0.34" style="stop-color:rgb(33,124,147);stop-opacity:0.31"/><stop offset="1" style="stop-color:rgb(1,0,42);stop-opacity:0"/></radialGradient>
        <radialGradient id="_balancedbgRadial3" cx="0" cy="0" r="1" gradientUnits="userSpaceOnUse" gradientTransform="matrix(640.283,921.838,924.504,-644.602,2103.62,130.531)"><stop offset="0" style="stop-color:rgb(44,169,183);stop-opacity:1"/><stop offset="1" style="stop-color:rgb(44,169,183);stop-opacity:0"/></radialGradient>
        <radialGradient id="_balancedbgRadial4" cx="0" cy="0" r="1" gradientUnits="userSpaceOnUse" gradientTransform="matrix(-640.283,-921.838,-924.504,644.602,921.294,1068.1)"><stop offset="0" style="stop-color:rgb(44,169,183);stop-opacity:1"/><stop offset="1" style="stop-color:rgb(44,169,183);stop-opacity:0"/></radialGradient>
        <radialGradient id="_balancedbgRadial5" cx="0" cy="0" r="1" gradientUnits="userSpaceOnUse" gradientTransform="matrix(924.504,-644.602,-640.283,-921.838,1048.82,9.41853)"><stop offset="0" style="stop-color:rgb(44,169,183);stop-opacity:1"/><stop offset="1" style="stop-color:rgb(44,169,183);stop-opacity:0"/></radialGradient>
        <radialGradient id="_balancedbgRadial6" cx="0" cy="0" r="1" gradientUnits="userSpaceOnUse" gradientTransform="matrix(290.338,807.101,807.385,-292.003,2039.85,370.553)"><stop offset="0" style="stop-color:rgb(44,169,183);stop-opacity:1"/><stop offset="1" style="stop-color:rgb(44,169,183);stop-opacity:0"/></radialGradient>
        <radialGradient id="_balancedbgRadial7" cx="0" cy="0" r="1" gradientUnits="userSpaceOnUse" gradientTransform="matrix(-290.338,-807.101,-807.385,292.003,985.058,827.497)"><stop offset="0" style="stop-color:rgb(44,169,183);stop-opacity:1"/><stop offset="1" style="stop-color:rgb(44,169,183);stop-opacity:0"/></radialGradient>
        <radialGradient id="_balancedbgRadial8" cx="0" cy="0" r="1" gradientUnits="userSpaceOnUse" gradientTransform="matrix(807.385,-292.003,-290.338,-807.101,1286.96,71.8485)"><stop offset="0" style="stop-color:rgb(44,169,183);stop-opacity:1"/><stop offset="1" style="stop-color:rgb(44,169,183);stop-opacity:0"/></radialGradient>
        <radialGradient id="_balancedbgRadial9" cx="0" cy="0" r="1" gradientUnits="userSpaceOnUse" gradientTransform="matrix(643.945,-63.4086,-45.7908,-647.034,1454.7,169.92)"><stop offset="0" style="stop-color:rgb(44,169,183);stop-opacity:1"/><stop offset="1" style="stop-color:rgb(44,169,183);stop-opacity:0"/></radialGradient>
        <radialGradient id="_balancedbgRadial10" cx="0" cy="0" r="1" gradientUnits="userSpaceOnUse" gradientTransform="matrix(-45.7908,-647.034,-643.945,63.4086,1083.96,667.315)"><stop offset="0" style="stop-color:rgb(44,169,183);stop-opacity:1"/><stop offset="1" style="stop-color:rgb(44,169,183);stop-opacity:0"/></radialGradient>
        <radialGradient id="_balancedbgRadial11" cx="0" cy="0" r="1" gradientUnits="userSpaceOnUse" gradientTransform="matrix(378.742,312.783,322.774,-374.306,1712.28,336.748)"><stop offset="0" style="stop-color:rgb(44,169,183);stop-opacity:1"/><stop offset="1" style="stop-color:rgb(44,169,183);stop-opacity:0"/></radialGradient>
        <radialGradient id="_balancedbgRadial12" cx="0" cy="0" r="1" gradientUnits="userSpaceOnUse" gradientTransform="matrix(-378.742,-312.783,-322.774,374.306,1312.33,862.766)"><stop offset="0" style="stop-color:rgb(44,169,183);stop-opacity:1"/><stop offset="1" style="stop-color:rgb(44,169,183);stop-opacity:0"/></radialGradient>
        <radialGradient id="_balancedbgRadial13" cx="0" cy="0" r="1" gradientUnits="userSpaceOnUse" gradientTransform="matrix(322.774,-374.306,-378.742,-312.783,1246.86,405.715)"><stop offset="0" style="stop-color:rgb(44,169,183);stop-opacity:1"/><stop offset="1" style="stop-color:rgb(44,169,183);stop-opacity:0"/></radialGradient>
    </defs>
</svg>
