<?xml version="1.0" encoding="UTF-8" standalone="no"?>
<!DOCTYPE svg PUBLIC "-//W3C//DTD SVG 1.1//EN" "http://www.w3.org/Graphics/SVG/1.1/DTD/svg11.dtd">
<svg width="100%" height="100%" viewBox="0 0 125 126" version="1.1" xmlns="http://www.w3.org/2000/svg" xmlns:xlink="http://www.w3.org/1999/xlink" xml:space="preserve" xmlns:serif="http://www.serif.com/" style="fill-rule:evenodd;clip-rule:evenodd;stroke-linecap:square;stroke-linejoin:round;stroke-miterlimit:1.5;">
    <g transform="matrix(1,0,0,1,-8.379,-1.115)">
        <path d="M70.197,37.9L92.374,50.805L92.374,76.615L70.197,89.52L48.019,76.615L48.019,50.805L70.197,37.9Z" style="fill:url(#_Linear1);stroke:white;stroke-width:2px;"/>
    </g>
    <g transform="matrix(1,0,0,1,-8.379,-1.115)">
        <path d="M70.426,7.306C101.47,7.306 126.675,32.51 126.675,63.555C126.675,94.599 101.47,119.804 70.426,119.804C39.381,119.804 14.177,94.599 14.177,63.555C14.177,32.51 39.381,7.306 70.426,7.306ZM70.426,15.306C43.796,15.306 22.177,36.925 22.177,63.555C22.177,90.184 43.796,111.804 70.426,111.804C97.055,111.804 118.675,90.184 118.675,63.555C118.675,36.925 97.055,15.306 70.426,15.306Z" style="fill:white;"/>
    </g>
    <g transform="matrix(1,0,0,1,-8.379,-1.115)">
        <ellipse cx="70.426" cy="116.566" rx="9.045" ry="8.867" style="fill:url(#_Linear2);stroke:white;stroke-width:2px;"/>
    </g>
    <g transform="matrix(1,0,0,1,-8.379,-1.115)">
        <ellipse cx="70.426" cy="10.982" rx="9.045" ry="8.867" style="fill:url(#_Linear3);stroke:white;stroke-width:2px;"/>
    </g>
    <g transform="matrix(1,0,0,1,-8.379,-1.115)">
        <path d="M114.049,64.666C114.049,59.674 118.022,55.621 122.916,55.621C127.81,55.621 131.784,59.674 131.784,64.666C131.784,69.658 127.81,73.711 122.916,73.711C118.022,73.711 114.049,69.658 114.049,64.666Z" style="fill:url(#_Linear4);stroke:white;stroke-width:2px;"/>
    </g>
    <g transform="matrix(1,0,0,1,-8.379,-1.115)">
        <path d="M9.379,64.666C9.379,59.674 13.352,55.621 18.246,55.621C23.14,55.621 27.113,59.674 27.113,64.666C27.113,69.658 23.14,73.711 18.246,73.711C13.352,73.711 9.379,69.658 9.379,64.666Z" style="fill:url(#_Linear5);stroke:white;stroke-width:2px;"/>
    </g>
    <g transform="matrix(1,0,0,1,-8.379,-1.115)">
        <path d="M102.177,92.713C105.707,89.183 111.383,89.126 114.843,92.587C118.304,96.047 118.247,101.723 114.718,105.253C111.188,108.783 105.512,108.839 102.052,105.378C98.591,101.918 98.648,96.242 102.177,92.713Z" style="fill:url(#_Linear6);stroke:white;stroke-width:2px;"/>
    </g>
    <g transform="matrix(1,0,0,1,-8.379,-1.115)">
        <path d="M25.05,23.454C28.58,19.924 34.255,19.868 37.716,23.329C41.176,26.789 41.12,32.464 37.59,35.994C34.06,39.524 28.385,39.581 24.924,36.12C21.464,32.659 21.52,26.984 25.05,23.454Z" style="fill:url(#_Linear7);stroke:white;stroke-width:2px;"/>
    </g>
    <g transform="matrix(1,0,0,1,-8.379,-1.115)">
        <path d="M38.552,92.783C42.082,96.313 42.138,101.988 38.678,105.449C35.217,108.909 29.542,108.853 26.012,105.323C22.482,101.793 22.426,96.118 25.886,92.657C29.347,89.197 35.022,89.253 38.552,92.783Z" style="fill:url(#_Linear8);stroke:white;stroke-width:2px;"/>
    </g>
    <g transform="matrix(1,0,0,1,-8.379,-1.115)">
        <path d="M115.778,23.468C119.308,26.997 119.364,32.673 115.904,36.133C112.443,39.594 106.768,39.538 103.238,36.008C99.708,32.478 99.652,26.802 103.113,23.342C106.573,19.881 112.248,19.938 115.778,23.468Z" style="fill:url(#_Linear9);stroke:white;stroke-width:2px;"/>
    </g>
    <defs>
        <linearGradient id="_Linear1" x1="0" y1="0" x2="1" y2="0" gradientUnits="userSpaceOnUse" gradientTransform="matrix(-1.6438e-14,49.9674,-42.935,-1.91304e-14,72.8694,38.4726)"><stop offset="0" style="stop-color:rgb(255,165,56);stop-opacity:1"/><stop offset="1" style="stop-color:rgb(255,123,0);stop-opacity:1"/></linearGradient>
        <linearGradient id="_Linear2" x1="0" y1="0" x2="1" y2="0" gradientUnits="userSpaceOnUse" gradientTransform="matrix(-6.70415e-15,17.1663,-17.5109,-6.57222e-15,71.5161,107.896)"><stop offset="0" style="stop-color:rgb(255,165,56);stop-opacity:1"/><stop offset="1" style="stop-color:rgb(255,123,0);stop-opacity:1"/></linearGradient>
        <linearGradient id="_Linear3" x1="0" y1="0" x2="1" y2="0" gradientUnits="userSpaceOnUse" gradientTransform="matrix(-6.70415e-15,17.1663,-17.5109,-6.57222e-15,71.5161,2.31173)"><stop offset="0" style="stop-color:rgb(255,165,56);stop-opacity:1"/><stop offset="1" style="stop-color:rgb(255,123,0);stop-opacity:1"/></linearGradient>
        <linearGradient id="_Linear4" x1="0" y1="0" x2="1" y2="0" gradientUnits="userSpaceOnUse" gradientTransform="matrix(-6.57259e-15,17.5109,-17.1672,-6.70415e-15,123.985,55.8217)"><stop offset="0" style="stop-color:rgb(255,165,56);stop-opacity:1"/><stop offset="1" style="stop-color:rgb(255,123,0);stop-opacity:1"/></linearGradient>
        <linearGradient id="_Linear5" x1="0" y1="0" x2="1" y2="0" gradientUnits="userSpaceOnUse" gradientTransform="matrix(-6.57222e-15,17.5109,-17.1663,-6.70415e-15,19.3147,55.8217)"><stop offset="0" style="stop-color:rgb(255,165,56);stop-opacity:1"/><stop offset="1" style="stop-color:rgb(255,123,0);stop-opacity:1"/></linearGradient>
        <linearGradient id="_Linear6" x1="0" y1="0" x2="1" y2="0" gradientUnits="userSpaceOnUse" gradientTransform="matrix(-6.63722e-15,17.3363,-17.336,-6.63731e-15,109.527,90.2266)"><stop offset="0" style="stop-color:rgb(255,165,56);stop-opacity:1"/><stop offset="1" style="stop-color:rgb(255,123,0);stop-opacity:1"/></linearGradient>
        <linearGradient id="_Linear7" x1="0" y1="0" x2="1" y2="0" gradientUnits="userSpaceOnUse" gradientTransform="matrix(-6.63722e-15,17.3363,-17.336,-6.63731e-15,32.3992,20.9681)"><stop offset="0" style="stop-color:rgb(255,165,56);stop-opacity:1"/><stop offset="1" style="stop-color:rgb(255,123,0);stop-opacity:1"/></linearGradient>
        <linearGradient id="_Linear8" x1="0" y1="0" x2="1" y2="0" gradientUnits="userSpaceOnUse" gradientTransform="matrix(-6.63722e-15,17.336,-17.336,-6.63722e-15,33.3612,90.297)"><stop offset="0" style="stop-color:rgb(255,165,56);stop-opacity:1"/><stop offset="1" style="stop-color:rgb(255,123,0);stop-opacity:1"/></linearGradient>
        <linearGradient id="_Linear9" x1="0" y1="0" x2="1" y2="0" gradientUnits="userSpaceOnUse" gradientTransform="matrix(-6.63717e-15,17.3363,-17.3359,-6.63731e-15,110.587,20.9816)"><stop offset="0" style="stop-color:rgb(255,165,56);stop-opacity:1"/><stop offset="1" style="stop-color:rgb(255,123,0);stop-opacity:1"/></linearGradient>
    </defs>
</svg>
