<?xml version="1.0" encoding="UTF-8" standalone="no"?>
<!DOCTYPE svg PUBLIC "-//W3C//DTD SVG 1.1//EN" "http://www.w3.org/Graphics/SVG/1.1/DTD/svg11.dtd">
<svg width="100%" height="100%" viewBox="0 0 156 152" version="1.1" xmlns="http://www.w3.org/2000/svg" xmlns:xlink="http://www.w3.org/1999/xlink" xml:space="preserve" xmlns:serif="http://www.serif.com/" style="fill-rule:evenodd;clip-rule:evenodd;stroke-linecap:square;stroke-linejoin:round;stroke-miterlimit:1.5;">
    <path d="M38.417,102.409C38.415,98.009 34.795,94.389 30.395,94.387L14.35,94.387C9.95,94.389 6.33,98.009 6.328,102.409L6.328,142.931C6.33,147.331 9.95,150.951 14.35,150.953L30.395,150.953C34.795,150.951 38.415,147.331 38.417,142.931L38.417,102.409Z" style="fill:url(#_Linear1);stroke:white;stroke-width:2px;"/>
    <path d="M91.203,55.1C91.201,50.7 87.581,47.08 83.181,47.078L67.137,47.078C62.737,47.08 59.117,50.7 59.115,55.1L59.115,142.931C59.117,147.331 62.737,150.951 67.137,150.953L83.181,150.953C87.581,150.951 91.201,147.331 91.203,142.931L91.203,55.1Z" style="fill:url(#_Linear2);stroke:white;stroke-width:2px;"/>
    <path d="M145.474,70.219C145.472,65.819 141.852,62.199 137.452,62.197L121.408,62.197C117.008,62.199 113.388,65.819 113.385,70.219L113.385,142.439C113.387,146.839 117.008,150.459 121.408,150.461L137.452,150.461C141.852,150.459 145.472,146.839 145.474,142.439L145.474,70.219Z" style="fill:url(#_Linear3);stroke:white;stroke-width:2px;"/>
    <path d="M136.885,19.222L151.393,19.186L149.487,34.402" style="fill:none;stroke:white;stroke-width:8px;stroke-linecap:round;"/>
    <path d="M4,68.99L75.913,4L129.302,41.161L147.026,22.672" style="fill:none;stroke:white;stroke-width:8px;stroke-linecap:round;"/>
    <defs>
        <linearGradient id="_Linear1" x1="0" y1="0" x2="1" y2="0" gradientUnits="userSpaceOnUse" gradientTransform="matrix(-1.18922e-14,54.7551,-31.0617,-2.09634e-14,24.3062,95.0145)"><stop offset="0" style="stop-color:rgb(255,165,56);stop-opacity:1"/><stop offset="1" style="stop-color:rgb(255,123,0);stop-opacity:1"/></linearGradient>
        <linearGradient id="_Linear2" x1="0" y1="0" x2="1" y2="0" gradientUnits="userSpaceOnUse" gradientTransform="matrix(-1.18918e-14,100.549,-31.0607,-3.84961e-14,77.0927,48.2303)"><stop offset="0" style="stop-color:rgb(255,165,56);stop-opacity:1"/><stop offset="1" style="stop-color:rgb(255,123,0);stop-opacity:1"/></linearGradient>
        <linearGradient id="_Linear3" x1="0" y1="0" x2="1" y2="0" gradientUnits="userSpaceOnUse" gradientTransform="matrix(-1.18922e-14,85.4383,-31.0617,-3.27106e-14,131.363,63.1762)"><stop offset="0" style="stop-color:rgb(255,165,56);stop-opacity:1"/><stop offset="1" style="stop-color:rgb(255,123,0);stop-opacity:1"/></linearGradient>
    </defs>
</svg>
