<svg viewBox="0 0 165 158" xmlns="http://www.w3.org/2000/svg" xml:space="preserve" style="fill-rule:evenodd;clip-rule:evenodd;stroke-linecap:round;stroke-linejoin:round;stroke-miterlimit:1.5">
    <title>Users icon</title>
    <ellipse id="disc" cx="81.631" cy="53.762" rx="46.567" ry="48.204" style="fill:#1B648F;"/>
    <g id="person">
        <ellipse id="backshadow" cx="82.163" cy="110.033" rx="77.933" ry="47.694" style="fill:url(#_balancedRadial79); transform: scaleX(0.7); transform-box: fill-box;transform-origin: center;"/>
        <path d="M118.476,92.233c3.696,2.658 5.842,6.969 5.736,11.521c-0.107,4.552 -2.453,8.757 -6.27,11.239c-24.333,15.855 -48.677,15.01 -73.021,-0.197c-3.899,-2.43 -6.335,-6.639 -6.5,-11.231c-0.164,-4.591 1.964,-8.964 5.68,-11.667c12.484,-9.313 28.672,-26.109 35.911,-53.5c0,0 0.375,-8.633 1.074,-4.813c0.698,-3.82 1.073,4.813 1.073,4.813c7.321,27.701 23.794,44.565 36.317,53.835Z" style="fill:url(#_balancedLinear710);stroke:white;stroke-width:2px;"/>
        <ellipse cx="81.403" cy="72.154" rx="33.499" ry="43.778" style="fill:url(#_balancedRadial711);"/>
        <path d="M51.846,51.023c3.801,-0.69 7.539,2.342 8.341,6.766c0.802,4.423 -1.633,8.574 -5.435,9.264c-3.802,0.689 -7.54,-2.343 -8.342,-6.766c-0.802,-4.424 1.634,-8.575 5.436,-9.264Z" style="fill:url(#_balancedLinear712);stroke:white;stroke-width:2px;"/>
        <path d="M110.804,51.021c3.803,0.685 6.243,4.833 5.446,9.258c-0.798,4.424 -4.532,7.46 -8.335,6.775c-3.802,-0.685 -6.242,-4.833 -5.445,-9.258c0.797,-4.424 4.531,-7.46 8.334,-6.775Z" style="fill:url(#_balancedLinear713);stroke:white;stroke-width:2px;"/>
        <ellipse cx="80.867" cy="56.038" rx="29.604" ry="34.445" style="fill:url(#_balancedLinear714);stroke:white;stroke-width:2px;"/>
    </g>
    <defs>
        <radialGradient id="_balancedRadial79" cx="0" cy="0" r="1" gradientUnits="userSpaceOnUse" gradientTransform="matrix(-76.5487,0,0,-45.1251,82.526,106.319)"><stop offset="0" style="stop-color:#000000;stop-opacity:0.6"/><stop offset="1" style="stop-color:#01002A;stop-opacity:0"/></radialGradient>
        <linearGradient id="_balancedLinear710" x1="0" y1="0" x2="1" y2="0" gradientUnits="userSpaceOnUse" gradientTransform="matrix(-3.17988e-14,90.9291,-83.0566,-3.48128e-14,86.4846,33.6517)"><stop offset="0" style="stop-color:white;stop-opacity:1"/><stop offset="1" style="stop-color:#A8D5EF;stop-opacity:1"/></linearGradient>
        <radialGradient id="_balancedRadial711" cx="0" cy="0" r="1" gradientUnits="userSpaceOnUse" gradientTransform="matrix(-32.9039,0,0,-41.42,81.559,68.7446)"><stop offset="0" style="stop-color:#16073A;stop-opacity:0.6"/><stop offset="1" style="stop-color:#A8D5EF;stop-opacity:0"/></radialGradient>
        <linearGradient id="_balancedLinear712" x1="0" y1="0" x2="1" y2="0" gradientUnits="userSpaceOnUse" gradientTransform="matrix(-5.21898e-15,15.706,-13.6317,-6.01317e-15,54.1472,51.1051)"><stop offset="0" style="stop-color:white;stop-opacity:1"/><stop offset="1" style="stop-color:#A8D5EF;stop-opacity:1"/></linearGradient>
        <linearGradient id="_balancedLinear713" x1="0" y1="0" x2="1" y2="0" gradientUnits="userSpaceOnUse" gradientTransform="matrix(-5.21869e-15,15.7065,-13.6309,-6.01334e-15,110.209,51.1045)"><stop offset="0" style="stop-color:white;stop-opacity:1"/><stop offset="1" style="stop-color:#A8D5EF;stop-opacity:1"/></linearGradient>
        <linearGradient id="_balancedLinear714" x1="0" y1="0" x2="1" y2="0" gradientUnits="userSpaceOnUse" gradientTransform="matrix(-2.19425e-14,66.6845,-57.3125,-2.55306e-14,84.4349,22.3572)"><stop offset="0" style="stop-color:white;stop-opacity:1"/><stop offset="1" style="stop-color:#A8D5EF;stop-opacity:1"/></linearGradient>
    </defs>
    <style type="text/css">
        #person,
        #disc {
            transform-box: fill-box;
            transform-origin: center;
            transition: 0.5s ease-in;
            transform: scale(1);
        }
        svg:hover #disc {
            transform: scale(1.05);
        }
        svg:hover #person {
            transform: scale(0.95);
        }
    </style>
</svg>
