<svg viewBox="0 0 152 181" xmlns="http://www.w3.org/2000/svg" xml:space="preserve" style="fill-rule:evenodd;clip-rule:evenodd;stroke-linecap:round;stroke-linejoin:round;stroke-miterlimit:1.5">
  <ellipse cx="75.78" cy="97.081" rx="75.78" ry="83.091" style="fill:url(#_ommRadial81)"/>
  <g id="lines1">
    <path d="M15.707,84.014l0,8.478m20,-64.006l0,29.291m20,-43.777l0,15.619m20,4.381l0,15.619m20,-15.619l0,19.643m20,-26.414l0,24.478m20,-15.551l0,10.686" style="fill:none;stroke:#B6C3DE;stroke-width:8px;"/>
  </g>
  <g id="lines2">
    <path d="M25.707,55.625l0,31.094m-20,4.295l-0,8.478m40,-95.492l0,34.369m20,-14.369l0,15.619m20,-27.088l0,61.311m20,-32.842l0,10.707m20,-5.551l0,23.364m20,-43.364l0,10.686" style="fill:none;stroke:#B6C3DE;stroke-width:8px;"/>
  </g>
  <circle cx="75.78" cy="85.002" r="52.148" style="fill:url(#_ommLinear84);stroke:white;stroke-width:2px;stroke-linecap:square;"/>
  <path d="M70.633,109.499c-2.08,-0.23 -4.136,-0.64 -6.145,-1.225c-2.803,-0.819 -5.146,-1.845 -7.032,-3.076c-0.595,-0.405 -0.815,-1.185 -0.519,-1.841c0.61,-1.366 1.654,-3.682 2.352,-5.23c0.24,-0.534 0.773,-0.878 1.359,-0.878c0.277,-0 0.548,0.077 0.784,0.223c1.62,0.976 3.452,1.802 5.493,2.483c2.608,0.879 5.34,1.328 8.092,1.332c2.079,0 3.758,-0.206 5.037,-0.617c1.278,-0.412 2.22,-0.986 2.827,-1.723c0.606,-0.736 0.91,-1.581 0.91,-2.534c0,-1.214 -0.477,-2.178 -1.43,-2.893c-0.953,-0.714 -2.21,-1.299 -3.77,-1.754c-1.707,-0.492 -3.43,-0.926 -5.167,-1.3c-1.908,-0.418 -3.795,-0.928 -5.654,-1.527c-1.885,-0.607 -3.607,-1.387 -5.167,-2.34c-1.546,-0.94 -2.849,-2.232 -3.802,-3.77c-0.975,-1.559 -1.462,-3.553 -1.462,-5.979c0,-2.6 0.704,-4.972 2.112,-7.117c1.408,-2.144 3.531,-3.856 6.369,-5.134c1.422,-0.64 3.026,-1.12 4.813,-1.44l0,-7.78c0,-1.221 0.991,-2.212 2.212,-2.212l4.423,0c1.221,0 2.212,0.991 2.212,2.212l0,7.425c1.845,0.152 3.672,0.447 5.48,0.885c2.292,0.555 4.361,1.339 6.209,2.353c0.653,0.368 0.931,1.163 0.648,1.857c-0.565,1.402 -1.513,3.733 -2.137,5.27c-0.227,0.561 -0.775,0.93 -1.381,0.93c-0.236,0 -0.468,-0.056 -0.678,-0.163c-1.577,-0.805 -3.23,-1.451 -4.935,-1.928c-2.123,-0.585 -4.203,-0.877 -6.24,-0.877c-2.036,-0 -3.704,0.238 -5.004,0.715c-1.3,0.476 -2.231,1.094 -2.795,1.852c-0.563,0.758 -0.844,1.636 -0.844,2.632c0,1.17 0.476,2.112 1.429,2.827c0.954,0.715 2.21,1.289 3.77,1.723c1.56,0.433 3.282,0.866 5.167,1.299c1.885,0.434 3.769,0.932 5.654,1.495c1.885,0.563 3.607,1.322 5.167,2.275c1.56,0.953 2.827,2.21 3.802,3.769c0.975,1.56 1.462,3.532 1.462,5.915c0,2.556 -0.715,4.896 -2.144,7.019c-1.43,2.123 -3.564,3.834 -6.402,5.134c-1.782,0.816 -3.857,1.376 -6.228,1.68l0,7.73c-0.001,1.213 -0.999,2.211 -2.212,2.212l-4.423,-0c-1.213,-0.001 -2.211,-0.999 -2.212,-2.212l0,-7.697Z" style="fill:#B6C3DE;"/>
  <defs>
      <radialGradient id="_ommRadial81" cx="0" cy="0" r="1" gradientUnits="userSpaceOnUse" gradientTransform="matrix(-74.4339 0 0 -78.6155 76.133 90.61)"><stop offset="0" style="stop-color:#000000;stop-opacity:0.4"/><stop offset="1" style="stop-color:rgb(225,230,242);stop-opacity:0"/></radialGradient>
      <linearGradient id="_ommLinear82" x1="0" y1="0" x2="1" y2="0" gradientUnits="userSpaceOnUse" gradientTransform="matrix(3.08247e-15,50.3406,-50.3406,3.08247e-15,85.561,25.971)"><stop offset="0" style="stop-color:rgb(146,61,239);stop-opacity:1"/><stop offset="0.5" style="stop-color:rgb(46,146,210);stop-opacity:1"/><stop offset="1" style="stop-color:rgb(0,207,190);stop-opacity:1"/></linearGradient>
      <linearGradient id="_ommLinear83" x1="0" y1="0" x2="1" y2="0" gradientUnits="userSpaceOnUse" gradientTransform="matrix(5.81716e-15,95.0014,-95.0014,5.81716e-15,85.561,9.22738)"><stop offset="0" style="stop-color:rgb(0,207,190);stop-opacity:1"/><stop offset="0.5" style="stop-color:rgb(46,146,210);stop-opacity:1"/><stop offset="1" style="stop-color:rgb(146,61,239);stop-opacity:1"/></linearGradient>
      <linearGradient id="_ommLinear84" x1="0" y1="0" x2="1" y2="0" gradientUnits="userSpaceOnUse" gradientTransform="matrix(-3.86521e-14,100.957,-100.957,-3.86521e-14,82.065,34.011)"><stop offset="0" style="stop-color:white;stop-opacity:1"/><stop offset="1" style="stop-color:rgb(220,226,238);stop-opacity:1"/></linearGradient>
      <linearGradient id="_ommLinear85" x1="0" y1="0" x2="1" y2="0" gradientUnits="userSpaceOnUse" gradientTransform="matrix(4.20695e-15,68.7047,-68.7047,4.20695e-15,75.0922,50.2474)"><stop offset="0" style="stop-color:rgb(146,61,239);stop-opacity:1"/><stop offset="0.5" style="stop-color:rgb(46,146,210);stop-opacity:1"/><stop offset="1" style="stop-color:rgb(0,207,190);stop-opacity:1"/></linearGradient>
  </defs>
  <style>
    #lines1,
    #lines2 {
        transform: translateY(0);
        transition: all 0.5s ease;
        transform-origin: center;
    }
    svg:hover #lines1 {
        transform: translateY(-5px); 
        transition: all 0.5s ease;
    }
    svg:hover #lines2 {
        transform: translateY(10px); 
        transition: all 0.5s ease;
    }
    </style>
</svg>
