<svg viewBox="0 0 141 143" id="omm-supply" xmlns="http://www.w3.org/2000/svg" xml:space="preserve" style="fill-rule:evenodd;clip-rule:evenodd;stroke-linejoin:round;stroke-miterlimit:2">
    <g class="nodes">
        <ellipse cx="34.686" cy="104.874" rx="20.182" ry="22.129" style="fill:url(#_ommRadial551);"/>
        <ellipse cx="106.449" cy="104.874" rx="20.182" ry="22.129" style="fill:url(#_ommRadial552);"/>
        <ellipse cx="20.182" cy="69.274" rx="20.182" ry="22.129" style="fill:url(#_ommRadial553);"/>
        <ellipse cx="120.192" cy="69.274" rx="20.182" ry="22.129" style="fill:url(#_ommRadial554);"/>
        <ellipse cx="34.686" cy="35.604" rx="20.182" ry="22.129" style="fill:url(#_ommRadial555);"/>
        <ellipse cx="106.449" cy="35.604" rx="20.182" ry="22.129" style="fill:url(#_ommRadial556);"/>
        <ellipse cx="70.073" cy="120.313" rx="20.182" ry="22.129" style="fill:url(#_ommRadial557);"/>
        <ellipse cx="70.073" cy="22.129" rx="20.182" ry="22.129" style="fill:url(#_ommRadial558);"/>
    </g>
    <path d="M70.197,48.9l22.177,12.905l0,25.81l-22.177,12.905l-22.178,-12.905l-0,-25.81l22.178,-12.905Z" style="fill:url(#_ommRadial559);"/>
    <path d="M70.197,37.9l22.177,12.905l0,25.81l-22.177,12.905l-22.178,-12.905l-0,-25.81l22.178,-12.905Z" style="fill:url(#_ommLinear5510);stroke:white;stroke-width:2px;"/>
    <path d="M70.426,7.306c31.044,0 56.249,25.204 56.249,56.249c0,31.044 -25.205,56.249 -56.249,56.249c-31.045,0 -56.249,-25.205 -56.249,-56.249c0,-31.045 25.204,-56.249 56.249,-56.249Zm-0,8c-26.63,0 -48.249,21.619 -48.249,48.249c-0,26.629 21.619,48.249 48.249,48.249c26.629,0 48.249,-21.62 48.249,-48.249c0,-26.63 -21.62,-48.249 -48.249,-48.249Z" style="fill:url(#_ommLinear5519)"/>
    <g class="nodes">
        <ellipse cx="70.426" cy="116.566" rx="9.045" ry="8.867" style="fill:url(#_ommLinear5511);stroke:white;stroke-width:2px;"/>
        <ellipse cx="70.426" cy="10.982" rx="9.045" ry="8.867" style="fill:url(#_ommLinear5512);stroke:white;stroke-width:2px;"/>
        <path d="M114.049,64.666c0,-4.992 3.973,-9.045 8.867,-9.045c4.894,0 8.868,4.053 8.868,9.045c0,4.992 -3.974,9.045 -8.868,9.045c-4.894,0 -8.867,-4.053 -8.867,-9.045Z" style="fill:url(#_ommLinear5513);stroke:white;stroke-width:2px;"/>
        <path d="M9.379,64.666c0,-4.992 3.973,-9.045 8.867,-9.045c4.894,0 8.867,4.053 8.867,9.045c0,4.992 -3.973,9.045 -8.867,9.045c-4.894,0 -8.867,-4.053 -8.867,-9.045Z" style="fill:url(#_ommLinear5514);stroke:white;stroke-width:2px;"/>
        <path d="M102.177,92.713c3.53,-3.53 9.206,-3.587 12.666,-0.126c3.461,3.46 3.404,9.136 -0.125,12.666c-3.53,3.53 -9.206,3.586 -12.666,0.125c-3.461,-3.46 -3.404,-9.136 0.125,-12.665Z" style="fill:url(#_ommLinear5515);stroke:white;stroke-width:2px;"/>
        <path d="M25.05,23.454c3.53,-3.53 9.205,-3.586 12.666,-0.125c3.46,3.46 3.404,9.135 -0.126,12.665c-3.53,3.53 -9.205,3.587 -12.666,0.126c-3.46,-3.461 -3.404,-9.136 0.126,-12.666Z" style="fill:url(#_ommLinear5516);stroke:white;stroke-width:2px;"/>
        <path d="M38.552,92.783c3.53,3.53 3.586,9.205 0.126,12.666c-3.461,3.46 -9.136,3.404 -12.666,-0.126c-3.53,-3.53 -3.586,-9.205 -0.126,-12.666c3.461,-3.46 9.136,-3.404 12.666,0.126Z" style="fill:url(#_ommLinear5517);stroke:white;stroke-width:2px;"/>
        <path d="M115.778,23.468c3.53,3.529 3.586,9.205 0.126,12.665c-3.461,3.461 -9.136,3.405 -12.666,-0.125c-3.53,-3.53 -3.586,-9.206 -0.125,-12.666c3.46,-3.461 9.135,-3.404 12.665,0.126Z" style="fill:url(#_ommLinear5518);stroke:white;stroke-width:2px;"/>
    </g>
    <path d="M70.426,7.306c31.044,0 56.249,25.204 56.249,56.249c0,31.044 -25.205,56.249 -56.249,56.249c-31.045,0 -56.249,-25.205 -56.249,-56.249c0,-31.045 25.204,-56.249 56.249,-56.249Zm-0,8c-26.63,0 -48.249,21.619 -48.249,48.249c-0,26.629 21.619,48.249 48.249,48.249c26.629,0 48.249,-21.62 48.249,-48.249c0,-26.63 -21.62,-48.249 -48.249,-48.249Z" style="fill:#ffffff;fill-opacity:0.1;"/>
    <defs>
        <radialGradient id="_ommRadial551" cx="0" cy="0" r="1" gradientUnits="userSpaceOnUse" gradientTransform="matrix(-19.8235,0,0,-20.9371,34.78,103.151)"><stop offset="0" style="stop-color:#16073A;stop-opacity:0.2"/><stop offset="1" style="stop-color:#E1E6F2;stop-opacity:0"/></radialGradient>
        <radialGradient id="_ommRadial552" cx="0" cy="0" r="1" gradientUnits="userSpaceOnUse" gradientTransform="matrix(-19.8235,0,0,-20.9371,106.543,103.151)"><stop offset="0" style="stop-color:#16073A;stop-opacity:0.2"/><stop offset="1" style="stop-color:#E1E6F2;stop-opacity:0"/></radialGradient>
        <radialGradient id="_ommRadial553" cx="0" cy="0" r="1" gradientUnits="userSpaceOnUse" gradientTransform="matrix(-19.8235,0,0,-20.9371,20.276,67.5506)"><stop offset="0" style="stop-color:#16073A;stop-opacity:0.2"/><stop offset="1" style="stop-color:#E1E6F2;stop-opacity:0"/></radialGradient>
        <radialGradient id="_ommRadial554" cx="0" cy="0" r="1" gradientUnits="userSpaceOnUse" gradientTransform="matrix(-19.8235,0,0,-20.9371,120.286,67.5506)"><stop offset="0" style="stop-color:#16073A;stop-opacity:0.2"/><stop offset="1" style="stop-color:#E1E6F2;stop-opacity:0"/></radialGradient>
        <radialGradient id="_ommRadial555" cx="0" cy="0" r="1" gradientUnits="userSpaceOnUse" gradientTransform="matrix(-19.8235,0,0,-20.9371,34.78,33.8806)"><stop offset="0" style="stop-color:#16073A;stop-opacity:0.2"/><stop offset="1" style="stop-color:#E1E6F2;stop-opacity:0"/></radialGradient>
        <radialGradient id="_ommRadial556" cx="0" cy="0" r="1" gradientUnits="userSpaceOnUse" gradientTransform="matrix(-19.8235,0,0,-20.9371,106.543,33.8806)"><stop offset="0" style="stop-color:#16073A;stop-opacity:0.2"/><stop offset="1" style="stop-color:#E1E6F2;stop-opacity:0"/></radialGradient>
        <radialGradient id="_ommRadial557" cx="0" cy="0" r="1" gradientUnits="userSpaceOnUse" gradientTransform="matrix(-19.8235,0,0,-20.9371,70.167,118.59)"><stop offset="0" style="stop-color:#16073A;stop-opacity:0.2"/><stop offset="1" style="stop-color:#E1E6F2;stop-opacity:0"/></radialGradient>
        <radialGradient id="_ommRadial558" cx="0" cy="0" r="1" gradientUnits="userSpaceOnUse" gradientTransform="matrix(-17.8625,0.304287,-0.32138,-18.866,70.511,18.3604)"><stop offset="0" style="stop-color:#16073A;stop-opacity:0.2"/><stop offset="1" style="stop-color:#E1E6F2;stop-opacity:0"/></radialGradient>
        <radialGradient id="_ommRadial559" cx="0" cy="0" r="1" gradientUnits="userSpaceOnUse" gradientTransform="matrix(-21.7836,0,0,-24.4198,70.2998,72.7)"><stop offset="0" style="stop-color:#16073A;stop-opacity:0.2"/><stop offset="1" style="stop-color:#E1E6F2;stop-opacity:0"/></radialGradient>
        <linearGradient id="_ommLinear5510" x1="0" y1="0" x2="1" y2="0" gradientUnits="userSpaceOnUse" gradientTransform="matrix(-1.6438e-14,49.9674,-42.935,-1.91304e-14,72.8694,38.4726)"><stop offset="0" style="stop-color:white;stop-opacity:1"/><stop offset="1" style="stop-color:#DCE2EE;stop-opacity:1"/></linearGradient>
        <linearGradient id="_ommLinear5511" x1="0" y1="0" x2="1" y2="0" gradientUnits="userSpaceOnUse" gradientTransform="matrix(-6.70415e-15,17.1663,-17.5109,-6.57222e-15,71.5161,107.896)"><stop offset="0" style="stop-color:white;stop-opacity:1"/><stop offset="1" style="stop-color:#DCE2EE;stop-opacity:1"/></linearGradient>
        <linearGradient id="_ommLinear5512" x1="0" y1="0" x2="1" y2="0" gradientUnits="userSpaceOnUse" gradientTransform="matrix(-6.70415e-15,17.1663,-17.5109,-6.57222e-15,71.5161,2.31173)"><stop offset="0" style="stop-color:white;stop-opacity:1"/><stop offset="1" style="stop-color:#DCE2EE;stop-opacity:1"/></linearGradient>
        <linearGradient id="_ommLinear5513" x1="0" y1="0" x2="1" y2="0" gradientUnits="userSpaceOnUse" gradientTransform="matrix(-6.57259e-15,17.5109,-17.1672,-6.70415e-15,123.985,55.8217)"><stop offset="0" style="stop-color:white;stop-opacity:1"/><stop offset="1" style="stop-color:#DCE2EE;stop-opacity:1"/></linearGradient>
        <linearGradient id="_ommLinear5514" x1="0" y1="0" x2="1" y2="0" gradientUnits="userSpaceOnUse" gradientTransform="matrix(-6.57222e-15,17.5109,-17.1663,-6.70415e-15,19.3147,55.8217)"><stop offset="0" style="stop-color:white;stop-opacity:1"/><stop offset="1" style="stop-color:#DCE2EE;stop-opacity:1"/></linearGradient>
        <linearGradient id="_ommLinear5515" x1="0" y1="0" x2="1" y2="0" gradientUnits="userSpaceOnUse" gradientTransform="matrix(-6.63722e-15,17.3363,-17.336,-6.63731e-15,109.527,90.2266)"><stop offset="0" style="stop-color:white;stop-opacity:1"/><stop offset="1" style="stop-color:#DCE2EE;stop-opacity:1"/></linearGradient>
        <linearGradient id="_ommLinear5516" x1="0" y1="0" x2="1" y2="0" gradientUnits="userSpaceOnUse" gradientTransform="matrix(-6.63722e-15,17.3363,-17.336,-6.63731e-15,32.3992,20.9681)"><stop offset="0" style="stop-color:white;stop-opacity:1"/><stop offset="1" style="stop-color:#DCE2EE;stop-opacity:1"/></linearGradient>
        <linearGradient id="_ommLinear5517" x1="0" y1="0" x2="1" y2="0" gradientUnits="userSpaceOnUse" gradientTransform="matrix(-6.63722e-15,17.336,-17.336,-6.63722e-15,33.3612,90.297)"><stop offset="0" style="stop-color:white;stop-opacity:1"/><stop offset="1" style="stop-color:#DCE2EE;stop-opacity:1"/></linearGradient>
        <linearGradient id="_ommLinear5518" x1="0" y1="0" x2="1" y2="0" gradientUnits="userSpaceOnUse" gradientTransform="matrix(-6.63717e-15,17.3363,-17.3359,-6.63731e-15,110.587,20.9816)"><stop offset="0" style="stop-color:white;stop-opacity:1"/><stop offset="1" style="stop-color:#DCE2EE;stop-opacity:1"/></linearGradient>
        <linearGradient id="_ommLinear5519" x1="0" y1="0" x2="1" y2="0" gradientUnits="userSpaceOnUse" gradientTransform="matrix(1.26382e-14,116.682,-206.398,7.14472e-15,69.1104,2.34759)"><stop offset="0" style="stop-color:rgb(146,61,239);stop-opacity:1"/><stop offset="0.5" style="stop-color:rgb(46,146,210);stop-opacity:1"/><stop offset="1" style="stop-color:rgb(0,207,190);stop-opacity:1"/></linearGradient>
    </defs>
    <style>
        svg#omm-supply {
            transform: scale(0.85);
            transform-box: fill-box;
            transform-origin: top;
        }
        .nodes {
            transform-origin: center;
            transform: rotate(0deg);
            transform-origin: center;
            transition: all 0.7s linear;
        }
        svg:hover .nodes {
            transform: rotate(-49deg);
            transition: all 0.7s linear;
            transform-origin: 50% 44.5%;
        }
    </style>
</svg>
