<svg viewBox="0 0 152 181" xmlns="http://www.w3.org/2000/svg" xml:space="preserve" style="fill-rule:evenodd;clip-rule:evenodd;stroke-linecap:round;stroke-linejoin:round;stroke-miterlimit:1.5">
  <ellipse cx="75.78" cy="97.081" rx="75.78" ry="83.091" style="fill:url(#_craftRadial81)"/>
  <g id="lines1">
    <path d="M15.707 84.014v8.478M35.707 28.486v29.291M55.707 14v15.619M75.707 34v15.619M95.707 34v19.643M115.707 27.229v24.478M135.707 36.156v10.686" style="fill:none;stroke:#70D1C8;stroke-width:8px"/>
  </g>
  <g id="lines2">
    <path d="M25.707 55.625v31.094M5.707 91.014v8.478M45.707 4v34.369M65.707 24v15.619M85.707 12.531v61.311M105.707 41v10.707M125.707 46.156V69.52M145.707 26.156v10.686" style="fill:none;stroke:#70D1C8;stroke-width:8px"/>
  </g>
  <circle cx="75.78" cy="85.002" r="52.148" style="fill:url(#_craftLinear82);stroke:#fff;stroke-width:2px;stroke-linecap:square"/>
  <path d="M70.633 109.499a36.16 36.16 0 0 1-6.145-1.225c-2.803-.819-5.146-1.845-7.032-3.076a1.487 1.487 0 0 1-.519-1.841c.61-1.366 1.654-3.682 2.352-5.23a1.49 1.49 0 0 1 2.143-.655c1.62.976 3.452 1.802 5.493 2.483a25.446 25.446 0 0 0 8.092 1.332c2.079 0 3.758-.206 5.037-.617 1.278-.412 2.22-.986 2.827-1.723.606-.736.91-1.581.91-2.534 0-1.214-.477-2.178-1.43-2.893-.953-.714-2.21-1.299-3.77-1.754a77.463 77.463 0 0 0-5.167-1.3 61.163 61.163 0 0 1-5.654-1.527c-1.885-.607-3.607-1.387-5.167-2.34a11.495 11.495 0 0 1-3.802-3.77c-.975-1.559-1.462-3.553-1.462-5.979 0-2.6.704-4.972 2.112-7.117 1.408-2.144 3.531-3.856 6.369-5.134 1.422-.64 3.026-1.12 4.813-1.44v-7.78c0-1.221.991-2.212 2.212-2.212h4.423c1.221 0 2.212.991 2.212 2.212v7.425c1.845.152 3.672.447 5.48.885 2.292.555 4.361 1.339 6.209 2.353.653.368.931 1.163.648 1.857-.565 1.402-1.513 3.733-2.137 5.27a1.49 1.49 0 0 1-2.059.767 26.605 26.605 0 0 0-4.935-1.928c-2.123-.585-4.203-.877-6.24-.877-2.036 0-3.704.238-5.004.715-1.3.476-2.231 1.094-2.795 1.852-.563.758-.844 1.636-.844 2.632 0 1.17.476 2.112 1.429 2.827.954.715 2.21 1.289 3.77 1.723 1.56.433 3.282.866 5.167 1.299 1.885.434 3.769.932 5.654 1.495 1.885.563 3.607 1.322 5.167 2.275 1.56.953 2.827 2.21 3.802 3.769.975 1.56 1.462 3.532 1.462 5.915 0 2.556-.715 4.896-2.144 7.019-1.43 2.123-3.564 3.834-6.402 5.134-1.782.816-3.857 1.376-6.228 1.68v7.73a2.213 2.213 0 0 1-2.212 2.212h-4.423a2.213 2.213 0 0 1-2.212-2.212v-7.697Z" style="fill:#1A8B85"/>
  <defs>
    <radialGradient id="_craftRadial81" cx="0" cy="0" r="1" gradientUnits="userSpaceOnUse" gradientTransform="matrix(-74.4339 0 0 -78.6155 76.133 90.61)"><stop offset="0" style="stop-color:#000000;stop-opacity:.2"/><stop offset="1" style="stop-color:#396472;stop-opacity:0"/></radialGradient>
    <linearGradient id="_craftLinear82" x1="0" y1="0" x2="1" y2="0" gradientUnits="userSpaceOnUse" gradientTransform="rotate(90 24.027 58.038) scale(100.957)"><stop offset="0" style="stop-color:white;stop-opacity:1"/><stop offset="1" style="stop-color:#ABE4DE;stop-opacity:1"/></linearGradient>
  </defs>
  <style>
    #lines1,
    #lines2 {
      transform: translateY(0);
      transition: all 0.5s ease;
      transform-origin: center;
    }
    svg:hover #lines1 {
      transform: translateY(-5px); 
      transition: all 0.5s ease;
    }
    svg:hover #lines2 {
      transform: translateY(10px); 
      transition: all 0.5s ease;
    }
    </style>
</svg>
