<svg viewBox="0 0 141 143" xmlns="http://www.w3.org/2000/svg" xml:space="preserve" style="fill-rule:evenodd;clip-rule:evenodd;stroke-linejoin:round;stroke-miterlimit:2">
    <g class="nodes">
        <ellipse cx="34.686" cy="104.874" rx="20.182" ry="22.129" style="fill:url(#_craftRadial51);"/>
        <ellipse cx="106.449" cy="104.874" rx="20.182" ry="22.129" style="fill:url(#_craftRadial52);"/>
        <ellipse cx="20.182" cy="69.274" rx="20.182" ry="22.129" style="fill:url(#_craftRadial53);"/>
        <ellipse cx="120.192" cy="69.274" rx="20.182" ry="22.129" style="fill:url(#_craftRadial54);"/>
        <ellipse cx="34.686" cy="35.604" rx="20.182" ry="22.129" style="fill:url(#_craftRadial55);"/>
        <ellipse cx="106.449" cy="35.604" rx="20.182" ry="22.129" style="fill:url(#_craftRadial56);"/>
        <ellipse cx="70.073" cy="120.313" rx="20.182" ry="22.129" style="fill:url(#_craftRadial57);"/>
        <ellipse cx="70.073" cy="22.129" rx="20.182" ry="22.129" style="fill:url(#_craftRadial58);"/>
    </g>
    <path d="M70.197,48.9l22.177,12.905l0,25.81l-22.177,12.905l-22.178,-12.905l-0,-25.81l22.178,-12.905Z" style="fill:url(#_craftRadial59);"/>
    <path d="M70.197,37.9l22.177,12.905l0,25.81l-22.177,12.905l-22.178,-12.905l-0,-25.81l22.178,-12.905Z" style="fill:url(#_craftLinear510);stroke:white;stroke-width:2px;"/>
    <path d="M70.426,7.306c31.044,0 56.249,25.204 56.249,56.249c0,31.044 -25.205,56.249 -56.249,56.249c-31.045,0 -56.249,-25.205 -56.249,-56.249c0,-31.045 25.204,-56.249 56.249,-56.249Zm-0,8c-26.63,0 -48.249,21.619 -48.249,48.249c-0,26.629 21.619,48.249 48.249,48.249c26.629,0 48.249,-21.62 48.249,-48.249c0,-26.63 -21.62,-48.249 -48.249,-48.249Z" style="fill:#70D1C8;"/>
    <g class="nodes">
        <ellipse cx="70.426" cy="116.566" rx="9.045" ry="8.867" style="fill:url(#_craftLinear511);stroke:white;stroke-width:2px;"/>
        <ellipse cx="70.426" cy="10.982" rx="9.045" ry="8.867" style="fill:url(#_craftLinear512);stroke:white;stroke-width:2px;"/>
        <path d="M114.049,64.666c0,-4.992 3.973,-9.045 8.867,-9.045c4.894,0 8.868,4.053 8.868,9.045c0,4.992 -3.974,9.045 -8.868,9.045c-4.894,0 -8.867,-4.053 -8.867,-9.045Z" style="fill:url(#_craftLinear513);stroke:white;stroke-width:2px;"/>
        <path d="M9.379,64.666c0,-4.992 3.973,-9.045 8.867,-9.045c4.894,0 8.867,4.053 8.867,9.045c0,4.992 -3.973,9.045 -8.867,9.045c-4.894,0 -8.867,-4.053 -8.867,-9.045Z" style="fill:url(#_craftLinear514);stroke:white;stroke-width:2px;"/>
        <path d="M102.177,92.713c3.53,-3.53 9.206,-3.587 12.666,-0.126c3.461,3.46 3.404,9.136 -0.125,12.666c-3.53,3.53 -9.206,3.586 -12.666,0.125c-3.461,-3.46 -3.404,-9.136 0.125,-12.665Z" style="fill:url(#_craftLinear515);stroke:white;stroke-width:2px;"/>
        <path d="M25.05,23.454c3.53,-3.53 9.205,-3.586 12.666,-0.125c3.46,3.46 3.404,9.135 -0.126,12.665c-3.53,3.53 -9.205,3.587 -12.666,0.126c-3.46,-3.461 -3.404,-9.136 0.126,-12.666Z" style="fill:url(#_craftLinear516);stroke:white;stroke-width:2px;"/>
        <path d="M38.552,92.783c3.53,3.53 3.586,9.205 0.126,12.666c-3.461,3.46 -9.136,3.404 -12.666,-0.126c-3.53,-3.53 -3.586,-9.205 -0.126,-12.666c3.461,-3.46 9.136,-3.404 12.666,0.126Z" style="fill:url(#_craftLinear517);stroke:white;stroke-width:2px;"/>
        <path d="M115.778,23.468c3.53,3.529 3.586,9.205 0.126,12.665c-3.461,3.461 -9.136,3.405 -12.666,-0.125c-3.53,-3.53 -3.586,-9.206 -0.125,-12.666c3.46,-3.461 9.135,-3.404 12.665,0.126Z" style="fill:url(#_craftLinear518);stroke:white;stroke-width:2px;"/>
    </g>
    <path d="M70.426,7.306c31.044,0 56.249,25.204 56.249,56.249c0,31.044 -25.205,56.249 -56.249,56.249c-31.045,0 -56.249,-25.205 -56.249,-56.249c0,-31.045 25.204,-56.249 56.249,-56.249Zm-0,8c-26.63,0 -48.249,21.619 -48.249,48.249c-0,26.629 21.619,48.249 48.249,48.249c26.629,0 48.249,-21.62 48.249,-48.249c0,-26.63 -21.62,-48.249 -48.249,-48.249Z" style="fill:#70D1C8;fill-opacity:0.1;"/>
    <defs>
        <radialGradient id="_craftRadial51" cx="0" cy="0" r="1" gradientUnits="userSpaceOnUse" gradientTransform="matrix(-19.8235,0,0,-20.9371,34.78,103.151)"><stop offset="0" style="stop-color:black;stop-opacity:0.4"/><stop offset="1" style="stop-color:#2996A2;stop-opacity:0"/></radialGradient>
        <radialGradient id="_craftRadial52" cx="0" cy="0" r="1" gradientUnits="userSpaceOnUse" gradientTransform="matrix(-19.8235,0,0,-20.9371,106.543,103.151)"><stop offset="0" style="stop-color:black;stop-opacity:0.4"/><stop offset="1" style="stop-color:#2996A2;stop-opacity:0"/></radialGradient>
        <radialGradient id="_craftRadial53" cx="0" cy="0" r="1" gradientUnits="userSpaceOnUse" gradientTransform="matrix(-19.8235,0,0,-20.9371,20.276,67.5506)"><stop offset="0" style="stop-color:black;stop-opacity:0.4"/><stop offset="1" style="stop-color:#2996A2;stop-opacity:0"/></radialGradient>
        <radialGradient id="_craftRadial54" cx="0" cy="0" r="1" gradientUnits="userSpaceOnUse" gradientTransform="matrix(-19.8235,0,0,-20.9371,120.286,67.5506)"><stop offset="0" style="stop-color:black;stop-opacity:0.4"/><stop offset="1" style="stop-color:#2996A2;stop-opacity:0"/></radialGradient>
        <radialGradient id="_craftRadial55" cx="0" cy="0" r="1" gradientUnits="userSpaceOnUse" gradientTransform="matrix(-19.8235,0,0,-20.9371,34.78,33.8806)"><stop offset="0" style="stop-color:black;stop-opacity:0.4"/><stop offset="1" style="stop-color:#2996A2;stop-opacity:0"/></radialGradient>
        <radialGradient id="_craftRadial56" cx="0" cy="0" r="1" gradientUnits="userSpaceOnUse" gradientTransform="matrix(-19.8235,0,0,-20.9371,106.543,33.8806)"><stop offset="0" style="stop-color:black;stop-opacity:0.4"/><stop offset="1" style="stop-color:#2996A2;stop-opacity:0"/></radialGradient>
        <radialGradient id="_craftRadial57" cx="0" cy="0" r="1" gradientUnits="userSpaceOnUse" gradientTransform="matrix(-19.8235,0,0,-20.9371,70.167,118.59)"><stop offset="0" style="stop-color:black;stop-opacity:0.4"/><stop offset="1" style="stop-color:#2996A2;stop-opacity:0"/></radialGradient>
        <radialGradient id="_craftRadial58" cx="0" cy="0" r="1" gradientUnits="userSpaceOnUse" gradientTransform="matrix(-17.8625,0.304287,-0.32138,-18.866,70.511,18.3604)"><stop offset="0" style="stop-color:black;stop-opacity:0.4"/><stop offset="1" style="stop-color:#2996A2;stop-opacity:0"/></radialGradient>
        <radialGradient id="_craftRadial59" cx="0" cy="0" r="1" gradientUnits="userSpaceOnUse" gradientTransform="matrix(-21.7836,0,0,-24.4198,70.2998,72.7)"><stop offset="0" style="stop-color:black;stop-opacity:0.4"/><stop offset="1" style="stop-color:#2996A2;stop-opacity:0"/></radialGradient>
        <linearGradient id="_craftLinear510" x1="0" y1="0" x2="1" y2="0" gradientUnits="userSpaceOnUse" gradientTransform="matrix(-1.6438e-14,49.9674,-42.935,-1.91304e-14,72.8694,38.4726)"><stop offset="0" style="stop-color:white;stop-opacity:1"/><stop offset="1" style="stop-color:#ABE4DE;stop-opacity:1"/></linearGradient>
        <linearGradient id="_craftLinear511" x1="0" y1="0" x2="1" y2="0" gradientUnits="userSpaceOnUse" gradientTransform="matrix(-6.70415e-15,17.1663,-17.5109,-6.57222e-15,71.5161,107.896)"><stop offset="0" style="stop-color:white;stop-opacity:1"/><stop offset="1" style="stop-color:#ABE4DE;stop-opacity:1"/></linearGradient>
        <linearGradient id="_craftLinear512" x1="0" y1="0" x2="1" y2="0" gradientUnits="userSpaceOnUse" gradientTransform="matrix(-6.70415e-15,17.1663,-17.5109,-6.57222e-15,71.5161,2.31173)"><stop offset="0" style="stop-color:white;stop-opacity:1"/><stop offset="1" style="stop-color:#ABE4DE;stop-opacity:1"/></linearGradient>
        <linearGradient id="_craftLinear513" x1="0" y1="0" x2="1" y2="0" gradientUnits="userSpaceOnUse" gradientTransform="matrix(-6.57259e-15,17.5109,-17.1672,-6.70415e-15,123.985,55.8217)"><stop offset="0" style="stop-color:white;stop-opacity:1"/><stop offset="1" style="stop-color:#ABE4DE;stop-opacity:1"/></linearGradient>
        <linearGradient id="_craftLinear514" x1="0" y1="0" x2="1" y2="0" gradientUnits="userSpaceOnUse" gradientTransform="matrix(-6.57222e-15,17.5109,-17.1663,-6.70415e-15,19.3147,55.8217)"><stop offset="0" style="stop-color:white;stop-opacity:1"/><stop offset="1" style="stop-color:#ABE4DE;stop-opacity:1"/></linearGradient>
        <linearGradient id="_craftLinear515" x1="0" y1="0" x2="1" y2="0" gradientUnits="userSpaceOnUse" gradientTransform="matrix(-6.63722e-15,17.3363,-17.336,-6.63731e-15,109.527,90.2266)"><stop offset="0" style="stop-color:white;stop-opacity:1"/><stop offset="1" style="stop-color:#ABE4DE;stop-opacity:1"/></linearGradient>
        <linearGradient id="_craftLinear516" x1="0" y1="0" x2="1" y2="0" gradientUnits="userSpaceOnUse" gradientTransform="matrix(-6.63722e-15,17.3363,-17.336,-6.63731e-15,32.3992,20.9681)"><stop offset="0" style="stop-color:white;stop-opacity:1"/><stop offset="1" style="stop-color:#ABE4DE;stop-opacity:1"/></linearGradient>
        <linearGradient id="_craftLinear517" x1="0" y1="0" x2="1" y2="0" gradientUnits="userSpaceOnUse" gradientTransform="matrix(-6.63722e-15,17.336,-17.336,-6.63722e-15,33.3612,90.297)"><stop offset="0" style="stop-color:white;stop-opacity:1"/><stop offset="1" style="stop-color:#ABE4DE;stop-opacity:1"/></linearGradient>
        <linearGradient id="_craftLinear518" x1="0" y1="0" x2="1" y2="0" gradientUnits="userSpaceOnUse" gradientTransform="matrix(-6.63717e-15,17.3363,-17.3359,-6.63731e-15,110.587,20.9816)"><stop offset="0" style="stop-color:white;stop-opacity:1"/><stop offset="1" style="stop-color:#ABE4DE;stop-opacity:1"/></linearGradient>
    </defs>
    <style>
        svg {
            transform-box: fill-box;
            transform-origin: center;
        }
        .nodes {
            transform: rotate(0deg);
            transform-origin: center;
            transition: all 0.7s linear;
        }
        svg:hover .nodes {
            transform: rotate(-49deg);
            transition: all 0.7s linear;
            transform-origin: 50% 44.5%;
        }
    </style>
</svg>
